<?xml version="1.0" standalone="no"?>
<!DOCTYPE svg PUBLIC "-//W3C//DTD SVG 20010904//EN"
 "http://www.w3.org/TR/2001/REC-SVG-20010904/DTD/svg10.dtd">
<svg version="1.0" xmlns="http://www.w3.org/2000/svg"
 width="122.000000pt" height="122.000000pt" viewBox="0 0 122.000000 122.000000"
 preserveAspectRatio="xMidYMid meet">

<g transform="translate(0.000000,122.000000) scale(0.100000,-0.100000)"
fill="#000000" stroke="none">
<path d="M0 610 l0 -610 610 0 610 0 0 610 0 610 -610 0 -610 0 0 -610z m663
500 c37 -29 43 -72 18 -116 -26 -44 -27 -107 -3 -142 28 -41 32 -59 20 -93
-20 -59 -106 -71 -144 -21 -20 25 -16 83 6 112 28 35 25 89 -5 130 -39 53 -31
109 20 138 30 17 59 14 88 -8z m175 -6 c12 -8 22 -22 22 -31 0 -8 14 -28 31
-44 23 -22 41 -29 70 -29 74 0 108 -76 53 -119 -47 -37 -95 -23 -113 32 -13
39 -56 67 -104 67 -26 0 -41 7 -56 26 -27 35 -26 59 4 89 28 29 61 32 93 9z
m-348 -14 c44 -44 4 -120 -63 -120 -36 0 -64 -24 -88 -75 -8 -16 -26 -36 -42
-45 -24 -13 -30 -13 -54 0 -64 36 -53 111 19 130 64 18 91 35 102 67 5 15 15
36 24 46 21 24 77 22 102 -3z m573 -252 c34 -17 46 -39 47 -80 0 -28 -6 -41
-27 -58 -24 -19 -36 -21 -85 -16 -59 7 -128 -11 -128 -34 0 -21 -53 -60 -81
-60 -37 0 -77 37 -85 77 -5 27 -1 37 25 64 30 30 34 31 86 24 66 -8 121 8 130
36 7 21 60 59 83 59 7 0 23 -5 35 -12z m-774 -57 c41 -41 97 -59 130 -41 51
27 116 -7 127 -67 5 -27 1 -37 -24 -63 -44 -43 -82 -41 -131 9 -43 44 -90 58
-134 42 -16 -6 -37 -11 -47 -11 -29 0 -69 41 -76 77 -5 27 -1 37 24 63 44 43
82 41 131 -9z m848 -134 c7 -7 15 -27 19 -44 5 -28 2 -37 -25 -62 -41 -38 -55
-76 -41 -114 15 -44 13 -55 -15 -82 -29 -30 -64 -32 -95 -7 -34 27 -30 78 9
114 35 32 46 73 31 113 -21 55 24 111 80 99 14 -3 31 -11 37 -17z m-917 -29
c19 -20 20 -31 15 -80 -7 -57 -7 -57 34 -97 50 -49 55 -89 15 -120 -34 -26
-64 -27 -92 -1 -19 18 -22 30 -19 85 2 64 1 66 -35 100 -36 32 -43 49 -38 85
7 50 83 68 120 28z m544 -58 c30 -11 56 -57 56 -99 0 -36 43 -91 72 -91 33 0
78 -53 78 -94 0 -56 -65 -93 -125 -70 -22 9 -45 57 -45 96 -1 41 -35 81 -83
97 -80 27 -93 121 -22 159 25 14 37 14 69 2z m-178 -24 c52 -44 30 -126 -37
-141 -41 -9 -79 -68 -79 -121 0 -53 -24 -83 -72 -91 -32 -5 -41 -1 -68 25 -17
17 -30 41 -30 55 0 33 34 73 73 86 44 15 77 69 77 125 0 36 5 48 26 65 35 28
76 27 110 -3z m204 -310 c28 -31 29 -71 2 -99 -25 -25 -75 -27 -100 -4 -25 23
-78 21 -109 -3 -34 -26 -77 -26 -103 2 -57 62 28 154 96 103 28 -21 91 -19
121 5 34 27 65 25 93 -4z"/>
</g>
</svg>
